<mxfile host="app.diagrams.net" modified="2021-08-11T13:11:16.551Z" agent="5.0 (Macintosh; Intel Mac OS X 10_15_7) AppleWebKit/537.36 (KHTML, like Gecko) Chrome/91.0.4472.114 Safari/537.36" etag="NqoupBFT1wXaGRtRE9D2" version="14.9.3" type="github">
  <diagram id="C5RBs43oDa-KdzZeNtuy" name="Page-1">
    <mxGraphModel dx="1426" dy="794" grid="1" gridSize="10" guides="1" tooltips="1" connect="1" arrows="1" fold="1" page="1" pageScale="1" pageWidth="827" pageHeight="1169" math="0" shadow="0">
      <root>
        <mxCell id="WIyWlLk6GJQsqaUBKTNV-0" />
        <mxCell id="WIyWlLk6GJQsqaUBKTNV-1" parent="WIyWlLk6GJQsqaUBKTNV-0" />
        <mxCell id="XGC_IJYDU8Fb2q-qxgob-36" style="edgeStyle=orthogonalEdgeStyle;rounded=0;orthogonalLoop=1;jettySize=auto;html=1;exitX=0.5;exitY=1;exitDx=0;exitDy=0;entryX=0.5;entryY=0;entryDx=0;entryDy=0;" edge="1" parent="WIyWlLk6GJQsqaUBKTNV-1" source="WIyWlLk6GJQsqaUBKTNV-3" target="XGC_IJYDU8Fb2q-qxgob-19">
          <mxGeometry relative="1" as="geometry" />
        </mxCell>
        <mxCell id="WIyWlLk6GJQsqaUBKTNV-3" value="Start the player in the middle of the river, with a &quot;P&quot;" style="rounded=1;whiteSpace=wrap;html=1;fontSize=12;glass=0;strokeWidth=1;shadow=0;" parent="WIyWlLk6GJQsqaUBKTNV-1" vertex="1">
          <mxGeometry x="330" y="250" width="140" height="60" as="geometry" />
        </mxCell>
        <mxCell id="XGC_IJYDU8Fb2q-qxgob-21" value="YES" style="edgeStyle=orthogonalEdgeStyle;rounded=0;orthogonalLoop=1;jettySize=auto;html=1;entryX=0;entryY=0.5;entryDx=0;entryDy=0;" edge="1" parent="WIyWlLk6GJQsqaUBKTNV-1" source="XGC_IJYDU8Fb2q-qxgob-19" target="XGC_IJYDU8Fb2q-qxgob-20">
          <mxGeometry relative="1" as="geometry" />
        </mxCell>
        <mxCell id="XGC_IJYDU8Fb2q-qxgob-19" value="Check to see if the player is in the same position as the crocodile - &quot;C&quot;" style="rounded=1;whiteSpace=wrap;html=1;fontSize=12;glass=0;strokeWidth=1;shadow=0;" vertex="1" parent="WIyWlLk6GJQsqaUBKTNV-1">
          <mxGeometry x="330" y="370" width="140" height="60" as="geometry" />
        </mxCell>
        <mxCell id="XGC_IJYDU8Fb2q-qxgob-20" value="&#39;You were eaten.&quot; &lt;br&gt;[BREAK]" style="rounded=1;whiteSpace=wrap;html=1;fontSize=12;glass=0;strokeWidth=1;shadow=0;" vertex="1" parent="WIyWlLk6GJQsqaUBKTNV-1">
          <mxGeometry x="560" y="370" width="140" height="60" as="geometry" />
        </mxCell>
        <mxCell id="XGC_IJYDU8Fb2q-qxgob-26" value="" style="edgeStyle=orthogonalEdgeStyle;rounded=0;orthogonalLoop=1;jettySize=auto;html=1;" edge="1" parent="WIyWlLk6GJQsqaUBKTNV-1" source="XGC_IJYDU8Fb2q-qxgob-23" target="XGC_IJYDU8Fb2q-qxgob-25">
          <mxGeometry relative="1" as="geometry" />
        </mxCell>
        <mxCell id="XGC_IJYDU8Fb2q-qxgob-23" value="Puts the whole &#39;&quot;river&quot; with a &quot;P&quot; showing the players position" style="rounded=1;whiteSpace=wrap;html=1;fontSize=12;glass=0;strokeWidth=1;shadow=0;" vertex="1" parent="WIyWlLk6GJQsqaUBKTNV-1">
          <mxGeometry x="330" y="880" width="140" height="50" as="geometry" />
        </mxCell>
        <mxCell id="XGC_IJYDU8Fb2q-qxgob-30" value="player_move = gets.chomp" style="edgeStyle=orthogonalEdgeStyle;rounded=0;orthogonalLoop=1;jettySize=auto;html=1;" edge="1" parent="WIyWlLk6GJQsqaUBKTNV-1" source="XGC_IJYDU8Fb2q-qxgob-25" target="XGC_IJYDU8Fb2q-qxgob-29">
          <mxGeometry relative="1" as="geometry" />
        </mxCell>
        <mxCell id="XGC_IJYDU8Fb2q-qxgob-25" value="puts &quot;Do you want to go left, right or neither?&quot;" style="rounded=1;whiteSpace=wrap;html=1;fontSize=12;glass=0;strokeWidth=1;shadow=0;" vertex="1" parent="WIyWlLk6GJQsqaUBKTNV-1">
          <mxGeometry x="330" y="980" width="140" height="50" as="geometry" />
        </mxCell>
        <mxCell id="XGC_IJYDU8Fb2q-qxgob-29" value="Move &quot;P&quot; to new position on next river.&lt;br&gt;&lt;br&gt;If rounds == 4:&lt;br&gt;puts &quot;You survived!&quot;&lt;br&gt;&lt;br&gt;[BREAK]" style="rounded=1;whiteSpace=wrap;html=1;fontSize=12;glass=0;strokeWidth=1;shadow=0;" vertex="1" parent="WIyWlLk6GJQsqaUBKTNV-1">
          <mxGeometry x="330" y="1105" width="140" height="120" as="geometry" />
        </mxCell>
        <mxCell id="XGC_IJYDU8Fb2q-qxgob-35" value="Rounds += 1" style="curved=1;endArrow=classic;html=1;exitX=0;exitY=0.5;exitDx=0;exitDy=0;entryX=-0.021;entryY=0.4;entryDx=0;entryDy=0;entryPerimeter=0;" edge="1" parent="WIyWlLk6GJQsqaUBKTNV-1" source="XGC_IJYDU8Fb2q-qxgob-29" target="XGC_IJYDU8Fb2q-qxgob-19">
          <mxGeometry width="50" height="50" relative="1" as="geometry">
            <mxPoint x="190" y="660" as="sourcePoint" />
            <mxPoint x="240" y="610" as="targetPoint" />
            <Array as="points">
              <mxPoint x="140" y="660" />
              <mxPoint x="230" y="450" />
            </Array>
          </mxGeometry>
        </mxCell>
        <mxCell id="XGC_IJYDU8Fb2q-qxgob-37" value="player = &quot;P&quot;" style="rounded=1;whiteSpace=wrap;html=1;" vertex="1" parent="WIyWlLk6GJQsqaUBKTNV-1">
          <mxGeometry x="50" y="20" width="60" height="40" as="geometry" />
        </mxCell>
        <mxCell id="XGC_IJYDU8Fb2q-qxgob-38" value="crocodile = &quot;C&quot;" style="rounded=1;whiteSpace=wrap;html=1;" vertex="1" parent="WIyWlLk6GJQsqaUBKTNV-1">
          <mxGeometry x="50" y="70" width="60" height="40" as="geometry" />
        </mxCell>
        <mxCell id="XGC_IJYDU8Fb2q-qxgob-39" value="river.each do |rivers|&lt;br&gt;&lt;br&gt;end&lt;br&gt;&lt;br&gt;&lt;br&gt;&lt;br&gt;&lt;br&gt;&lt;br&gt;river.index(&quot;P&quot;) == river.index(&quot;C&quot;)" style="rhombus;whiteSpace=wrap;html=1;" vertex="1" parent="WIyWlLk6GJQsqaUBKTNV-1">
          <mxGeometry x="207.5" y="450" width="385" height="300" as="geometry" />
        </mxCell>
        <mxCell id="XGC_IJYDU8Fb2q-qxgob-40" value="&lt;div style=&quot;font-family: &amp;#34;menlo&amp;#34; , &amp;#34;monaco&amp;#34; , &amp;#34;courier new&amp;#34; , monospace ; line-height: 18px&quot;&gt;&lt;span style=&quot;background-color: rgb(255 , 255 , 255)&quot;&gt;river = &quot;-----,--C--,CC-CC,CC-CC&quot;.split(&quot;,&quot;)&lt;/span&gt;&lt;/div&gt;" style="rounded=1;whiteSpace=wrap;html=1;fillColor=#FFFFFF;" vertex="1" parent="WIyWlLk6GJQsqaUBKTNV-1">
          <mxGeometry x="141" y="20" width="280" height="40" as="geometry" />
        </mxCell>
        <mxCell id="XGC_IJYDU8Fb2q-qxgob-41" value="&lt;div style=&quot;font-family: &amp;#34;menlo&amp;#34; , &amp;#34;monaco&amp;#34; , &amp;#34;courier new&amp;#34; , monospace ; line-height: 18px&quot;&gt;&lt;span style=&quot;background-color: rgb(255 , 255 , 255)&quot;&gt;river = [&lt;/span&gt;&lt;/div&gt;&lt;div style=&quot;font-family: &amp;#34;menlo&amp;#34; , &amp;#34;monaco&amp;#34; , &amp;#34;courier new&amp;#34; , monospace ; line-height: 18px&quot;&gt;&lt;span style=&quot;background-color: rgb(255 , 255 , 255)&quot;&gt;&amp;nbsp;&#39;-----&#39;&amp;nbsp;&lt;/span&gt;&lt;/div&gt;&lt;div style=&quot;font-family: &amp;#34;menlo&amp;#34; , &amp;#34;monaco&amp;#34; , &amp;#34;courier new&amp;#34; , monospace ; line-height: 18px&quot;&gt;&lt;span style=&quot;background-color: rgb(255 , 255 , 255)&quot;&gt;&#39;--C--&#39;&lt;/span&gt;&lt;/div&gt;&lt;div style=&quot;font-family: &amp;#34;menlo&amp;#34; , &amp;#34;monaco&amp;#34; , &amp;#34;courier new&amp;#34; , monospace ; line-height: 18px&quot;&gt;&lt;span style=&quot;background-color: rgb(255 , 255 , 255)&quot;&gt;&amp;nbsp;&#39;CC-CC&#39;&amp;nbsp;&lt;/span&gt;&lt;/div&gt;&lt;div style=&quot;font-family: &amp;#34;menlo&amp;#34; , &amp;#34;monaco&amp;#34; , &amp;#34;courier new&amp;#34; , monospace ; line-height: 18px&quot;&gt;&lt;span style=&quot;background-color: rgb(255 , 255 , 255)&quot;&gt;&#39;CC-CC&#39;&lt;/span&gt;&lt;/div&gt;&lt;div style=&quot;font-family: &amp;#34;menlo&amp;#34; , &amp;#34;monaco&amp;#34; , &amp;#34;courier new&amp;#34; , monospace ; line-height: 18px&quot;&gt;&lt;span style=&quot;background-color: rgb(255 , 255 , 255)&quot;&gt;]&lt;/span&gt;&lt;/div&gt;" style="rounded=1;whiteSpace=wrap;html=1;fillColor=#FFFFFF;" vertex="1" parent="WIyWlLk6GJQsqaUBKTNV-1">
          <mxGeometry x="450" y="20" width="280" height="120" as="geometry" />
        </mxCell>
      </root>
    </mxGraphModel>
  </diagram>
</mxfile>
